<svg width="244" height="71" viewBox="0 0 244 71" fill="none" xmlns="http://www.w3.org/2000/svg">
<g clip-path="url(#clip0_1_270)">
<path d="M41.6656 5.78978H54.1726L19.9077 69.7112L98.1571 70.0199L85.909 47.1449V46.9597H85.8103L60.7099 0.0494444L38.2489 -0.0493164L0.0123444 70.2174H6.57424L41.6656 5.78978ZM35.6587 52.5766L82.3567 52.7618L88.5239 64.2548L29.5285 64.0326L35.6587 52.5766ZM58.983 9.0735L79.2608 46.9844H65.6929L52.0141 22.0726L58.983 9.0735Z" fill="#D5A439"/>
<path d="M108.962 33.2941L106.039 41.0343C105.789 41.6714 105.591 42.3278 105.447 42.9971C105.308 43.5589 105.234 44.1345 105.225 44.713C105.213 45.0547 105.297 45.3928 105.467 45.6894C105.637 45.9859 105.886 46.2292 106.187 46.3919C107.327 46.9138 108.55 47.2273 109.801 47.3178V48.3918H97.343V47.3178C98.9791 47.3569 100.577 46.8194 101.857 45.7994C103.3 44.1841 104.351 42.2578 104.929 40.1701L119.249 0.209961H120.137L137.997 47.4906H142.376V48.5646L121.407 48.4782V47.4165H126.847L121.913 33.3681L108.962 33.2941ZM109.307 32.2201H121.432L115.437 15.0361L109.307 32.2201Z" fill="white"/>
<path d="M142.4 18.937H142.536C144.008 18.9627 145.466 18.6538 146.802 18.0337C148.137 17.4136 149.314 16.4984 150.245 15.357C152.565 12.4063 154.018 8.86659 154.439 5.1355H155.5V18.9987H161.876V20.0604H155.512L155.426 42.2811C155.338 43.4656 155.515 44.6548 155.944 45.7623C156.098 46.0886 156.345 46.3616 156.655 46.5463C156.965 46.731 157.323 46.8191 157.683 46.7993C158.451 46.7976 159.197 46.5415 159.804 46.0709C160.537 45.5143 161.143 44.8072 161.58 43.997L162.469 44.5525C161.671 46.0562 160.454 47.2956 158.966 48.1202C157.399 48.9778 155.632 49.4038 153.847 49.3546C151.051 49.3546 149.061 48.6016 147.877 47.0955C146.705 45.6018 146.125 42.9477 146.138 39.1578L146.212 19.9616H142.511L142.4 18.937Z" fill="white"/>
<path d="M168.414 2.60477H164.713V1.53077H170.227C171.697 1.55044 173.166 1.49275 174.63 1.35795C175.669 1.24837 176.696 1.05012 177.701 0.765381L177.516 47.5646H181.624V48.6262L164.134 48.6016V47.4905H168.241L168.414 2.60477Z" fill="white"/>
<path d="M213.15 41.454C213.062 42.7624 213.212 44.076 213.594 45.3303C213.715 45.6535 213.936 45.9296 214.224 46.1184C214.513 46.3072 214.854 46.3987 215.198 46.3796C215.481 46.3707 215.758 46.2917 216.004 46.1495C216.249 46.0073 216.455 45.8064 216.604 45.5648C217.106 44.8156 217.462 43.9778 217.653 43.0959H218.578C218.449 44.8971 217.621 46.5764 216.271 47.7745C214.949 48.982 213.213 49.6321 211.424 49.5892C209.86 49.6536 208.313 49.2588 206.971 48.4535C205.768 47.6328 204.894 46.4128 204.504 45.0093C203.864 46.4661 202.763 47.6719 201.371 48.4412C199.793 49.2613 198.03 49.6609 196.252 49.6016C192.33 49.6016 189.32 48.8362 187.224 47.3425C186.205 46.6386 185.383 45.6866 184.835 44.5763C184.287 43.4661 184.031 42.2342 184.091 40.9972C184.091 37.7629 185.764 35.3598 189.111 33.7879C192.453 32.2077 197.498 31.4424 204.282 31.467V27.2945C204.282 23.9367 203.863 21.801 202.975 20.8628C202.087 19.9246 200.36 19.4555 197.769 19.4432C196.449 19.4148 195.135 19.6368 193.896 20.0975C192.799 20.5419 192.256 21.0357 192.256 21.5665C192.256 21.7517 192.552 22.0232 193.156 22.4059C193.761 22.7886 194.242 23.1219 194.587 23.3935C194.921 23.7075 195.182 24.091 195.352 24.5169C195.534 24.9977 195.622 25.509 195.611 26.023C195.631 26.5266 195.545 27.0289 195.358 27.4969C195.171 27.9649 194.887 28.3881 194.526 28.7388C193.716 29.4346 192.668 29.7886 191.602 29.7264C190.403 29.8046 189.221 29.4103 188.309 28.6277C187.912 28.2232 187.606 27.7388 187.41 27.2067C187.214 26.6747 187.134 26.1071 187.174 25.5415C187.195 24.453 187.509 23.3904 188.085 22.4665C188.66 21.5427 189.475 20.7923 190.443 20.295C193.119 18.8385 196.146 18.1547 199.188 18.3198C201.094 18.3062 202.995 18.5217 204.849 18.9617C206.457 19.3384 207.994 19.972 209.401 20.8382C210.642 21.5524 211.659 22.6 212.336 23.8626C212.987 25.5614 213.269 27.3794 213.163 29.1956L213.15 41.454ZM204.294 32.5904H203.678C199.632 32.5904 196.98 33.0348 195.697 33.9854C194.415 34.9359 193.773 36.8864 193.761 39.8245C193.596 41.9419 193.974 44.0664 194.859 45.9969C195.245 46.6157 195.796 47.1152 196.449 47.4399C197.102 47.7645 197.833 47.9018 198.559 47.8363C199.382 47.8927 200.207 47.7414 200.957 47.3963C201.707 47.0512 202.358 46.5234 202.851 45.8611C203.938 44.0482 204.446 41.9464 204.307 39.8368L204.294 32.5904Z" fill="white"/>
<path d="M221.328 49.6139V38.59H222.401C223.531 41.4517 225.245 44.0459 227.434 46.2067C229.134 47.7875 231.367 48.6691 233.687 48.6757C235.318 48.7661 236.92 48.217 238.152 47.1449C238.718 46.6123 239.161 45.9637 239.453 45.2435C239.745 44.5234 239.877 43.7487 239.842 42.9724C239.842 40.7009 237.577 39.2113 233.046 38.5036C232.084 38.3678 231.331 38.2443 230.801 38.1456C227.38 37.5448 224.913 36.5243 223.4 35.084C222.624 34.2848 222.026 33.3308 221.643 32.2842C221.261 31.2376 221.103 30.1221 221.18 29.0104C221.159 27.6249 221.413 26.249 221.927 24.9626C222.442 23.6762 223.207 22.505 224.177 21.5171C225.105 20.5191 226.232 19.7292 227.487 19.1993C228.741 18.6695 230.094 18.4118 231.455 18.4432C233.026 18.4737 234.583 18.7528 236.068 19.2703C236.956 19.5946 237.862 19.8667 238.781 20.0851C239.181 20.0959 239.574 19.9792 239.904 19.7518C240.25 19.4661 240.518 19.0964 240.681 18.6778H241.816V28.1463H240.681C240.042 25.707 238.765 23.4825 236.981 21.7023C235.381 20.2766 233.3 19.5131 231.159 19.5666C229.571 19.5034 228.014 20.0212 226.78 21.0233C226.22 21.4628 225.768 22.0255 225.46 22.6677C225.152 23.3099 224.996 24.0144 225.004 24.7267C225.005 25.3819 225.179 26.0252 225.51 26.5908C225.88 27.1839 226.388 27.6792 226.99 28.0352C228.291 28.614 229.697 28.9207 231.122 28.9363C232.782 29.0402 234.431 29.2714 236.055 29.6276C238.389 29.9978 240.548 31.095 242.223 32.7632C243.557 34.4625 244.22 36.5935 244.085 38.7505C244.144 40.2199 243.903 41.686 243.377 43.0592C242.851 44.4324 242.051 45.684 241.026 46.7376C239.971 47.7527 238.721 48.5423 237.351 49.058C235.981 49.5737 234.52 49.8049 233.058 49.7373C231.65 49.6779 230.257 49.4117 228.926 48.9473C227.805 48.5375 226.636 48.272 225.448 48.1572C224.797 48.1312 224.148 48.2492 223.548 48.5029C223.066 48.7296 222.687 49.131 222.488 49.6263L221.328 49.6139Z" fill="white"/>
<path d="M120.963 59.2304H122.061V63.2918H126.785V59.218H127.871V68.2174H126.773V64.2177H122.086V68.2174H120.963V59.2304Z" fill="#D5A439"/>
<path d="M132.706 59.2798H137.948V60.1686H133.791V63.2301H137.121V64.119H133.779V67.378H138.157V68.2792H132.693L132.706 59.2798Z" fill="#D5A439"/>
<path d="M144.744 59.3291H146.175L149.184 68.3285H148.099L147.223 65.7361H143.523L142.635 68.3161H141.611L144.744 59.3291ZM143.831 64.8596H146.952L145.41 60.2303L143.831 64.8596Z" fill="#D5A439"/>
<path d="M153.329 59.354H154.414V67.4522H158.521V68.341H153.292L153.329 59.354Z" fill="#D5A439"/>
<path d="M163.406 60.2921H160.791V59.4033H167.106V60.2921H164.491V68.3903H163.394L163.406 60.2921Z" fill="#D5A439"/>
<path d="M171.127 59.428H172.213V63.5018H176.937V59.428H178.035V68.415H176.937V64.4153H172.213V68.4767H171.115L171.127 59.428Z" fill="#D5A439"/>
<path d="M182.352 64.0202V63.9214C182.309 63.3388 182.387 62.7537 182.58 62.2025C182.774 61.6513 183.078 61.1458 183.475 60.7174C183.872 60.289 184.352 59.9469 184.887 59.7123C185.422 59.4777 185.999 59.3557 186.582 59.3539C187.019 59.3007 187.463 59.3351 187.886 59.4551C188.31 59.5752 188.706 59.7784 189.05 60.0531C189.395 60.3277 189.681 60.6682 189.892 61.0547C190.104 61.4412 190.237 61.866 190.283 62.3043H189.197C189.176 61.9969 189.093 61.6971 188.951 61.4233C188.81 61.1494 188.615 60.9074 188.377 60.712C188.139 60.5165 187.863 60.3719 187.568 60.287C187.272 60.202 186.962 60.1786 186.656 60.218C184.794 60.218 183.548 61.65 183.536 63.9214V64.0326C183.536 66.3163 184.683 67.736 186.619 67.736C186.942 67.7702 187.268 67.7405 187.578 67.6486C187.889 67.5566 188.179 67.4043 188.431 67.2002C188.683 66.9961 188.892 66.7443 189.047 66.4592C189.202 66.1741 189.299 65.8613 189.333 65.5386H190.357C190.263 66.4471 189.813 67.2813 189.105 67.8577C188.398 68.4342 187.49 68.7057 186.582 68.6125C183.93 68.5754 182.352 66.7854 182.352 64.0202Z" fill="#D5A439"/>
<path d="M196.733 59.5266H198.164L201.161 68.5383H200.088L199.213 65.9459H195.512L194.637 68.5383H193.6L196.733 59.5266ZM195.821 65.0571H198.929L197.436 60.4278L195.821 65.0571Z" fill="#D5A439"/>
<path d="M205.306 59.5637H208.007C209.722 59.5637 211.14 60.2797 211.14 62.0327C211.143 62.6488 210.915 63.2437 210.502 63.7006C210.089 64.1574 209.52 64.4431 208.908 64.5017L211.646 68.5014H210.412L207.748 64.5757H206.367V68.489H205.269L205.306 59.5637ZM208.069 63.7857C209.302 63.7857 210.042 63.2425 210.042 62.1314C210.042 60.897 209.302 60.5019 208.081 60.5019H206.391V63.835L208.069 63.7857Z" fill="#D5A439"/>
<path d="M215.716 59.6008H220.958V60.4897H216.801V63.5388H220.144V64.4277H216.801V67.6867H221.168V68.5755H215.704L215.716 59.6008Z" fill="#D5A439"/>
</g>
<defs>
<clipPath id="clip0_1_270">
<rect width="243.986" height="70.2914" fill="white"/>
</clipPath>
</defs>
</svg>
