<svg width="24" height="23" viewBox="0 0 24 23" fill="none" xmlns="http://www.w3.org/2000/svg">
<g clip-path="url(#clip0_1_289)">
<path d="M21.6034 0H2.39652C1.76184 0.00288952 1.15413 0.24579 0.705337 0.67588C0.256546 1.10597 0.00301515 1.68847 0 2.2967V20.7033C0.00301515 21.3115 0.256546 21.894 0.705337 22.3241C1.15413 22.7542 1.76184 22.9971 2.39652 23H21.6034C22.2381 22.9971 22.8459 22.7542 23.2947 22.3241C23.7435 21.894 23.997 21.3115 24.0001 20.7033V2.2967C23.997 1.68847 23.7435 1.10597 23.2947 0.67588C22.8459 0.24579 22.2381 0.00288952 21.6034 0ZM7.02915 20.7363H3.19928V8.92308H7.02915V20.7363ZM5.11414 7.30769C4.67417 7.30769 4.24413 7.18266 3.8783 6.9484C3.51247 6.71415 3.2274 6.3812 3.05902 5.99165C2.89065 5.6021 2.84651 5.17346 2.93235 4.75992C3.01818 4.34637 3.23013 3.96651 3.54124 3.66836C3.85235 3.37022 4.2487 3.16718 4.68022 3.08492C5.11174 3.00266 5.55899 3.04488 5.96548 3.20624C6.37196 3.36759 6.71948 3.64084 6.96392 3.99142C7.20836 4.34201 7.33878 4.75418 7.33878 5.17583C7.33878 5.74123 7.10437 6.28347 6.68719 6.68328C6.27 7.08308 5.70413 7.30769 5.11414 7.30769ZM21.3971 20.7363H17.5557V14.989C17.5557 13.6154 17.5556 11.8571 15.5719 11.8571C13.5881 11.8571 13.2785 13.3516 13.2785 14.8901V20.7363H9.44863V8.92308H13.1294V10.5385C13.4982 9.93445 14.031 9.43762 14.6711 9.1009C15.3112 8.76418 16.0347 8.60018 16.7644 8.62638C20.6402 8.62638 21.3512 11.0769 21.3512 14.2527L21.3971 20.7363Z" fill="#D5A439"/>
</g>
<defs>
<clipPath id="clip0_1_289">
<rect width="24" height="23" fill="white"/>
</clipPath>
</defs>
</svg>
