<svg width="33" height="29" viewBox="0 0 33 29" fill="none" xmlns="http://www.w3.org/2000/svg">
<path d="M31.736 12.7106C31.9527 12.9116 32.1241 13.1499 32.2405 13.4117C32.3569 13.6735 32.416 13.9539 32.4143 14.2366C32.4127 14.5193 32.3503 14.7988 32.2308 15.0592C32.1113 15.3197 31.9371 15.5559 31.7181 15.7543L18.7715 27.5007C18.569 27.7109 18.3216 27.8806 18.0445 27.9993C17.7675 28.118 17.4668 28.1831 17.1611 28.1907C16.8554 28.1983 16.5512 28.1482 16.2674 28.0434C15.9835 27.9386 15.726 27.7815 15.511 27.5817C15.2959 27.3819 15.1277 27.1437 15.017 26.8819C14.9062 26.62 14.8552 26.3401 14.8671 26.0596C14.879 25.779 14.9535 25.5037 15.0861 25.2508C15.2187 24.9979 15.4064 24.7727 15.6378 24.5893L24.8656 16.2295L2.28969 16.0959C1.70111 16.0924 1.13791 15.8744 0.723972 15.4898C0.310032 15.1052 0.0792677 14.5856 0.0824455 14.0452C0.0856232 13.5049 0.322483 12.988 0.740917 12.6083C1.15935 12.2287 1.72508 12.0174 2.31365 12.0209L24.8895 12.1545L15.7607 3.68589C15.5315 3.49972 15.3464 3.27232 15.2169 3.01786C15.0873 2.7634 15.016 2.4874 15.0074 2.20672C14.9988 1.92603 15.0531 1.64675 15.1669 1.38624C15.2807 1.12574 15.4517 0.889422 15.6691 0.692161C15.8865 0.494899 16.1458 0.340846 16.4309 0.239438C16.716 0.138031 17.0207 0.091507 17.3263 0.102717C17.6319 0.113926 17.9318 0.182637 18.2074 0.304611C18.483 0.426586 18.7284 0.599289 18.9284 0.811863L31.736 12.7106Z" fill="#C59734"/>
</svg>
