<svg width="42" height="44" viewBox="0 0 42 44" fill="none" xmlns="http://www.w3.org/2000/svg">
<path d="M18.7245 42.8885C19.0232 43.1838 19.3779 43.418 19.7683 43.5778C20.1588 43.7376 20.5774 43.82 21.0001 43.82C21.4228 43.82 21.8412 43.7376 22.2317 43.5778C22.6221 43.418 22.9768 43.1838 23.2755 42.8885L40.9524 25.436C41.2685 25.1631 41.5243 24.8292 41.7042 24.4547C41.8841 24.0802 41.9842 23.6732 41.9983 23.259C42.0123 22.8447 41.9401 22.4321 41.7859 22.0465C41.6318 21.661 41.3992 21.3108 41.1023 21.0177C40.8055 20.7246 40.4509 20.4948 40.0604 20.3426C39.6699 20.1905 39.2518 20.1191 38.8322 20.133C38.4127 20.1469 38.0004 20.2457 37.6211 20.4233C37.2418 20.601 36.9035 20.8537 36.6271 21.1657L24.0466 33.6052V3.00776C24.0466 2.21005 23.7256 1.44502 23.1543 0.880955C22.5829 0.316889 21.8081 0 21.0001 0C20.1921 0 19.4173 0.316889 18.846 0.880955C18.2746 1.44502 17.9537 2.21005 17.9537 3.00776V33.6052L5.37287 21.1657C5.09655 20.8537 4.75819 20.601 4.37889 20.4233C3.99959 20.2457 3.58756 20.1469 3.16798 20.133C2.7484 20.1191 2.33035 20.1905 1.93986 20.3426C1.54937 20.4948 1.19453 20.7246 0.897676 21.0177C0.600821 21.3108 0.368198 21.661 0.214058 22.0465C0.0599183 22.4321 -0.0123367 22.8447 0.00171916 23.259C0.015775 23.6732 0.115852 24.0802 0.29578 24.4547C0.475708 24.8292 0.73175 25.1631 1.04781 25.436L18.7245 42.8885Z" fill="#D5A439"/>
</svg>
