<svg width="67" height="86" viewBox="0 0 67 86" fill="none" xmlns="http://www.w3.org/2000/svg">
<path d="M47.2227 21.9812L38.6166 20.5418L34.7386 11.4982C34.5903 11.1549 34.3514 10.8634 34.05 10.6582C33.7487 10.453 33.3975 10.3427 33.0383 10.3403C32.6782 10.3387 32.3254 10.4475 32.0234 10.6532C31.7213 10.8588 31.4831 11.1525 31.3379 11.4982L27.445 20.5418L18.839 21.9812C18.5038 22.0328 18.1886 22.1799 17.9277 22.4065C17.6668 22.6331 17.4703 22.9304 17.3595 23.2662C17.2487 23.6019 17.2279 23.9632 17.2995 24.3105C17.371 24.6578 17.532 24.9778 17.7651 25.2357L24.104 32.3391L22.6125 42.384C22.5603 42.7502 22.6066 43.1245 22.7463 43.4645C22.886 43.8046 23.1134 44.0968 23.403 44.3085C23.7162 44.5298 24.0844 44.6495 24.462 44.6527C24.787 44.6494 25.1056 44.5578 25.3867 44.3868L33.0532 39.6929L40.7047 44.3868C41.0088 44.5711 41.3564 44.6615 41.7073 44.6476C42.0583 44.6338 42.3984 44.5162 42.6884 44.3085C42.978 44.0968 43.2055 43.8046 43.3452 43.4645C43.4849 43.1245 43.5312 42.7502 43.4789 42.384L41.9874 32.3391L48.3264 25.2357C48.5594 24.9778 48.7205 24.6578 48.792 24.3105C48.8635 23.9632 48.8427 23.6019 48.7319 23.2662C48.6211 22.9304 48.4246 22.6331 48.1637 22.4065C47.9028 22.1799 47.5876 22.0328 47.2525 21.9812H47.2227ZM38.6166 30.352C38.4345 30.5615 38.2975 30.8097 38.2152 31.0797C38.1328 31.3497 38.1069 31.6352 38.1393 31.9167L39.1833 38.8792L33.963 35.75C33.6786 35.5813 33.3575 35.4927 33.0308 35.4927C32.7041 35.4927 32.383 35.5813 32.0986 35.75L26.8782 38.8792L27.9223 31.9167C27.9547 31.6352 27.9288 31.3497 27.8465 31.0797C27.7641 30.8097 27.6272 30.5615 27.445 30.352L22.8959 25.2513L29.026 24.2343C29.3449 24.1933 29.6488 24.0686 29.9095 23.8717C30.1703 23.6748 30.3794 23.412 30.5176 23.1078L33.1129 17.0526L35.5888 23.0608C35.7201 23.3551 35.9177 23.6114 36.1646 23.8077C36.4114 24.0039 36.7001 24.1343 37.0057 24.1874L43.1359 25.2044L38.6166 30.352Z" fill="#D6A43B"/>
<path d="M65.8667 75.1003L54.9189 46.5301C58.0453 42.2417 59.9662 37.1217 60.4645 31.7484C60.9628 26.3751 60.0187 20.9626 57.7388 16.1226C55.4589 11.2826 51.9341 7.20788 47.5627 4.35884C43.1913 1.50981 38.1474 0 33.0009 0C27.8545 0 22.8107 1.50981 18.4392 4.35884C14.0678 7.20788 10.543 11.2826 8.2631 16.1226C5.98321 20.9626 5.03906 26.3751 5.53736 31.7484C6.03567 37.1217 7.95655 42.2417 11.083 46.5301L0.135183 75.0377C0.00481486 75.3769 -0.0322244 75.7478 0.0282623 76.108C0.088749 76.4683 0.244361 76.8036 0.477386 77.0757C0.710411 77.3479 1.0115 77.546 1.3465 77.6477C1.6815 77.7493 2.03695 77.7503 2.37247 77.6506L12.4999 74.6778L17.8396 84.1908C18.0061 84.484 18.2418 84.7272 18.5239 84.8971C18.806 85.067 19.1251 85.1579 19.4505 85.1608H19.5847C19.933 85.1346 20.2672 85.0063 20.5493 84.7905C20.8315 84.5747 21.0502 84.2802 21.1806 83.9404L31.1738 57.9049C31.7853 57.9049 32.382 57.9988 33.0084 57.9988C33.6348 57.9988 34.2165 57.9988 34.8281 57.9049L44.8213 83.9404C44.9517 84.2802 45.1704 84.5747 45.4525 84.7905C45.7347 85.0063 46.0689 85.1346 46.4172 85.1608H46.5514C46.8767 85.1579 47.1959 85.067 47.478 84.8971C47.7601 84.7272 47.9958 84.484 48.1623 84.1908L53.5019 74.6778L63.6294 77.6506C63.9649 77.7503 64.3204 77.7493 64.6554 77.6477C64.9904 77.546 65.2915 77.3479 65.5245 77.0757C65.7576 76.8036 65.9131 76.4683 65.9736 76.108C66.0341 75.7478 65.9971 75.3769 65.8667 75.0377V75.1003ZM19.1372 78.8397L14.9908 71.4546C14.78 71.0828 14.4584 70.794 14.0756 70.6328C13.6929 70.4717 13.2702 70.447 12.8728 70.5628L5.0125 72.8785L13.8423 49.8784C17.5773 53.6837 22.2619 56.3036 27.3555 57.4355L19.1372 78.8397ZM9.14401 29.1157C9.14401 24.1644 10.5436 19.3243 13.1659 15.2075C15.7881 11.0906 19.5153 7.88195 23.8759 5.98717C28.2366 4.0924 33.0349 3.59664 37.6641 4.56259C42.2933 5.52853 46.5456 7.91283 49.8831 11.4139C53.2206 14.915 55.4935 19.3757 56.4143 24.2318C57.3351 29.0879 56.8625 34.1214 55.0562 38.6958C53.25 43.2702 50.1912 47.18 46.2668 49.9308C42.3423 52.6816 37.7283 54.1498 33.0084 54.1498C26.6792 54.1498 20.6092 51.5123 16.1337 46.8175C11.6583 42.1227 9.14401 35.7551 9.14401 29.1157ZM53.1887 70.5628C52.7913 70.447 52.3687 70.4717 51.9859 70.6328C51.6032 70.794 51.2816 71.0828 51.0708 71.4546L46.9243 78.8397L38.6464 57.4825C43.74 56.3505 48.4246 53.7307 52.1596 49.9253L60.9894 72.9254L53.1887 70.5628Z" fill="#D6A43B"/>
</svg>
