<svg width="46" height="46" viewBox="0 0 46 46" fill="none" xmlns="http://www.w3.org/2000/svg">
<g clip-path="url(#clip0_1_262)">
<path d="M23 2.44698C34.3304 2.44698 43.5449 11.6615 43.5449 22.9919C43.5449 34.3223 34.3304 43.5369 23 43.5369C11.6696 43.5369 2.44698 34.3304 2.44698 23C2.44698 11.6696 11.6696 2.44698 23 2.44698ZM23 0C10.2967 0 0 10.2967 0 23C0 35.7033 10.2967 46 23 46C35.7033 46 46 35.7033 46 23C46 10.2967 35.7033 0 23 0Z" fill="#D6A43B"/>
<path d="M12.6871 20.3512C12.6871 14.6577 17.3065 10.0383 23 10.0383C28.6935 10.0383 33.3128 14.6577 33.3128 20.3512C33.3128 27.2237 23 37.5366 23 37.5366C23 37.5366 12.6871 27.2237 12.6871 20.3512ZM18.7036 20.3512C18.7036 22.7255 20.6257 24.6475 23 24.6475C25.3743 24.6475 27.2963 22.7255 27.2963 20.3512C27.2963 17.9769 25.3743 16.0548 23 16.0548C20.6257 16.0548 18.7036 17.9769 18.7036 20.3512Z" fill="#D6A43B"/>
</g>
<defs>
<clipPath id="clip0_1_262">
<rect width="46" height="46" fill="white"/>
</clipPath>
</defs>
</svg>
