<svg width="67" height="66" viewBox="0 0 67 66" fill="none" xmlns="http://www.w3.org/2000/svg">
<path d="M6.89204 44.9498C6.53834 44.9498 6.19914 45.1146 5.94905 45.408C5.69895 45.7015 5.55844 46.0994 5.55844 46.5144V64.201C5.55844 64.6159 5.69895 65.0139 5.94905 65.3073C6.19914 65.6007 6.53834 65.7656 6.89204 65.7656C7.24573 65.7656 7.58493 65.6007 7.83503 65.3073C8.08512 65.0139 8.22563 64.6159 8.22563 64.201V46.5144C8.22563 46.0994 8.08512 45.7015 7.83503 45.408C7.58493 45.1146 7.24573 44.9498 6.89204 44.9498Z" fill="white"/>
<path d="M14.1148 34.6234C15.3607 34.6259 16.5791 34.1945 17.6159 33.384C18.6527 32.5734 19.4611 31.4202 19.9389 30.0702C20.4166 28.7202 20.5422 27.2342 20.2996 25.8005C20.0571 24.3667 19.4574 23.0497 18.5764 22.0161C17.6954 20.9825 16.5729 20.2789 15.3509 19.9943C14.1288 19.7098 12.8623 19.8571 11.7117 20.4176C10.5611 20.9781 9.57812 21.9266 8.88727 23.143C8.19643 24.3594 7.8288 25.789 7.83091 27.2507C7.83373 29.205 8.49669 31.0784 9.67454 32.4603C10.8524 33.8423 12.4491 34.6201 14.1148 34.6234ZM14.1148 22.9948C14.8327 22.9924 15.5351 23.2399 16.133 23.706C16.7309 24.1721 17.1975 24.836 17.4737 25.6134C17.7499 26.3908 17.8232 27.2469 17.6845 28.0733C17.5457 28.8997 17.2011 29.6592 16.6942 30.2556C16.1873 30.8521 15.541 31.2586 14.8371 31.4239C14.1332 31.5891 13.4033 31.5056 12.7398 31.1838C12.0764 30.8621 11.5092 30.3166 11.1102 29.6164C10.7111 28.9163 10.4981 28.093 10.4981 27.2507C10.4981 26.1241 10.8788 25.0435 11.5567 24.2458C12.2347 23.448 13.1546 22.9982 14.1148 22.9948Z" fill="white"/>
<path d="M61.8256 36.0247H56.2885C56.074 36.036 55.865 36.1079 55.6793 36.2343C55.4935 36.3607 55.3365 36.5379 55.2216 36.7507L52.8532 41.0691L50.4634 36.7382C50.3485 36.5254 50.1915 36.3482 50.0058 36.2218C49.82 36.0954 49.611 36.0235 49.3965 36.0122H43.8594C42.4964 36.0155 41.1901 36.6522 40.2263 37.7829C39.2625 38.9137 38.7198 40.4463 38.717 42.0454V48.4667L33.5533 50.5571L28.283 48.4667V42.0329C28.283 40.435 27.7426 38.9023 26.7806 37.7712C25.8185 36.6401 24.5133 36.003 23.1513 35.9997H17.6142C17.3997 36.011 17.1906 36.0829 17.0049 36.2093C16.8192 36.3357 16.6622 36.5128 16.5473 36.7257L14.1682 41.0441L11.789 36.7257C11.6699 36.5034 11.5046 36.3201 11.3087 36.1932C11.1128 36.0662 10.8926 35.9996 10.6688 35.9997H5.14235C3.77851 35.9997 2.47054 36.6353 1.50616 37.7668C0.54178 38.8982 0 40.4328 0 42.0329V64.1756C0 64.5906 0.140507 64.9886 0.390605 65.282C0.640703 65.5754 0.979906 65.7403 1.3336 65.7403C1.68729 65.7403 2.02649 65.5754 2.27659 65.282C2.52669 64.9886 2.66721 64.5906 2.66721 64.1756V42.058C2.66721 41.2878 2.92798 40.5491 3.39216 40.0045C3.85634 39.4599 4.48589 39.154 5.14235 39.154H9.92198L13.0266 44.8117C13.1553 45.0186 13.3239 45.1869 13.5186 45.303C13.7132 45.419 13.9285 45.4795 14.1468 45.4795C14.3652 45.4795 14.5804 45.419 14.7751 45.303C14.9698 45.1869 15.1383 45.0186 15.2671 44.8117L18.3717 39.154H23.1833C23.5078 39.154 23.8292 39.2292 24.1289 39.3753C24.4286 39.5214 24.7007 39.7355 24.9297 40.0053C25.1587 40.2751 25.34 40.5953 25.4633 40.9476C25.5865 41.2998 25.6492 41.6772 25.6478 42.058V49.5682C25.6519 49.7611 25.6844 49.9516 25.7438 50.1315L25.8078 50.2566C25.8617 50.3807 25.926 50.4981 25.9998 50.6071L26.0959 50.7073C26.1874 50.8089 26.2918 50.8933 26.4053 50.9576H26.4906H26.5546L33.0519 53.5987C33.3373 53.6989 33.6414 53.6989 33.9268 53.5987L40.424 50.9576H40.4881H40.5734C40.6869 50.8933 40.7912 50.8089 40.8828 50.7073L40.9682 50.6071C41.0489 50.5015 41.117 50.3836 41.1709 50.2566L41.2242 50.1315C41.2887 49.9534 41.3214 49.7617 41.3202 49.5682V42.058C41.3202 41.2878 41.581 40.5491 42.0452 40.0045C42.5093 39.4599 43.1389 39.154 43.7954 39.154H48.607L51.7116 44.8117C51.832 45.0317 51.9978 45.2124 52.1937 45.3372C52.3895 45.4619 52.609 45.5266 52.8318 45.5252C53.0541 45.5232 53.2726 45.4571 53.4679 45.3327C53.6633 45.2082 53.8295 45.0293 53.9521 44.8117L57.0567 39.154H61.8576C62.5141 39.154 63.1437 39.4599 63.6079 40.0045C64.072 40.5491 64.3328 41.2878 64.3328 42.058V64.2007C64.3328 64.6157 64.4733 65.0136 64.7234 65.3071C64.9735 65.6005 65.3127 65.7653 65.6664 65.7653C66.0201 65.7653 66.3593 65.6005 66.6094 65.3071C66.8595 65.0136 67 64.6157 67 64.2007V42.058C67 41.2625 66.8659 40.4749 66.6055 39.7404C66.3451 39.006 65.9634 38.3392 65.4825 37.7785C65.0016 37.2177 64.431 36.7741 63.8034 36.4731C63.1758 36.1722 62.5036 36.0198 61.8256 36.0247Z" fill="white"/>
<path d="M60.0653 44.9498C59.7116 44.9498 59.3724 45.1146 59.1223 45.408C58.8722 45.7015 58.7317 46.0994 58.7317 46.5144V64.201C58.7317 64.6159 58.8722 65.0139 59.1223 65.3073C59.3724 65.6007 59.7116 65.7656 60.0653 65.7656C60.419 65.7656 60.7582 65.6007 61.0083 65.3073C61.2584 65.0139 61.3989 64.6159 61.3989 64.201V46.5144C61.3989 46.0994 61.2584 45.7015 61.0083 45.408C60.7582 45.1146 60.419 44.9498 60.0653 44.9498Z" fill="white"/>
<path d="M45.5664 44.9497C45.2127 44.9497 44.8735 45.1145 44.6234 45.4079C44.3733 45.7014 44.2328 46.0993 44.2328 46.5143V54.0245L34.3108 57.7796L33.9801 57.8547H33.8414H33.7027H33.4466H33.1373H32.9772H32.8385H32.6571L22.7245 54.0621V46.5518C22.7245 46.1369 22.584 45.7389 22.3339 45.4455C22.0838 45.1521 21.7446 44.9872 21.3909 44.9872C21.0372 44.9872 20.698 45.1521 20.4479 45.4455C20.1978 45.7389 20.0573 46.1369 20.0573 46.5518V64.2384C20.0573 64.6534 20.1978 65.0513 20.4479 65.3447C20.698 65.6382 21.0372 65.803 21.3909 65.803C21.7446 65.803 22.0838 65.6382 22.3339 65.3447C22.584 65.0513 22.7245 64.6534 22.7245 64.2384V57.354L31.9317 60.8963L32.4331 61.0215L32.6892 61.0841H32.9879H33.4786C33.667 61.0956 33.8557 61.0956 34.0441 61.0841H34.3215H34.5775L35.111 60.9339L44.2648 57.4166V64.2634C44.2648 64.6784 44.4053 65.0763 44.6554 65.3698C44.9055 65.6632 45.2447 65.828 45.5984 65.828C45.9521 65.828 46.2913 65.6632 46.5414 65.3698C46.7915 65.0763 46.932 64.6784 46.932 64.2634V46.5143C46.932 46.3056 46.8965 46.0991 46.8275 45.9067C46.7585 45.7144 46.6574 45.5402 46.5302 45.3945C46.4029 45.2487 46.2521 45.1342 46.0866 45.0578C45.9211 44.9814 45.7442 44.9447 45.5664 44.9497Z" fill="white"/>
<path d="M46.5052 27.2502C46.5052 28.7114 46.8746 30.1397 47.5668 31.3545C48.2589 32.5692 49.2426 33.5158 50.3934 34.0744C51.5442 34.633 52.8104 34.7785 54.0317 34.4925C55.253 34.2065 56.3746 33.5019 57.2545 32.4679C58.1344 31.4338 58.733 30.1167 58.9747 28.6833C59.2164 27.2499 59.0902 25.7646 58.6121 24.4154C58.1341 23.0661 57.3256 21.9136 56.2891 21.1037C55.2525 20.2937 54.0345 19.8626 52.7891 19.8651C51.1215 19.8684 49.5232 20.648 48.345 22.0326C47.1669 23.4172 46.5052 25.2937 46.5052 27.2502ZM52.7891 22.9944C53.507 22.9919 54.2093 23.2394 54.8073 23.7056C55.4052 24.1717 55.8718 24.8355 56.148 25.6129C56.4241 26.3904 56.4975 27.2464 56.3587 28.0728C56.22 28.8992 55.8753 29.6586 55.3685 30.2551C54.8616 30.8515 54.2153 31.2581 53.5114 31.4233C52.8074 31.5886 52.0775 31.505 51.4141 31.1833C50.7507 30.8615 50.1835 30.3161 49.7845 29.6159C49.3854 28.9158 49.1724 28.0925 49.1724 27.2502C49.1724 26.1237 49.5531 25.0431 50.231 24.2453C50.909 23.4476 51.8289 22.9977 52.7891 22.9944Z" fill="white"/>
<path d="M32.113 27.6634C32.3632 27.9529 32.7006 28.1148 33.0519 28.114C33.406 28.1127 33.7461 27.9514 34.0014 27.6634L51.4129 7.23564C51.6586 6.93894 51.7961 6.54155 51.7961 6.12787C51.7961 5.71419 51.6586 5.31684 51.4129 5.02014L47.5188 0.463926C47.3966 0.317075 47.2505 0.200381 47.0893 0.120709C46.9281 0.0410364 46.7549 0 46.5799 0C46.405 0 46.2318 0.0410364 46.0706 0.120709C45.9093 0.200381 45.7633 0.317075 45.6411 0.463926L33.1586 15.0963L27.3335 8.26204C27.2103 8.11324 27.0626 7.99544 26.8993 7.91581C26.7361 7.83618 26.5607 7.79641 26.3839 7.79892C26.0263 7.80423 25.685 7.97522 25.4344 8.27457L21.4976 13.031C21.2533 13.3235 21.1164 13.7167 21.1164 14.1263C21.1164 14.5358 21.2533 14.929 21.4976 15.2215L32.113 27.6634ZM26.4053 11.5916L32.2197 18.4259C32.3427 18.5712 32.489 18.6865 32.6501 18.7652C32.8112 18.8439 32.9841 18.8845 33.1586 18.8845C33.3331 18.8845 33.506 18.8439 33.6671 18.7652C33.8282 18.6865 33.9745 18.5712 34.0975 18.4259L46.5799 3.79346L48.575 6.13414L33.0519 24.3464L24.3248 14.12L26.4053 11.5916Z" fill="white"/>
</svg>
