<svg width="55" height="51" viewBox="0 0 55 51" fill="none" xmlns="http://www.w3.org/2000/svg">
<g clip-path="url(#clip0_1_99)">
<path d="M27.5 2.71295C32.3612 2.71118 37.1137 4.04632 41.1564 6.54951C45.1991 9.0527 48.3503 12.6117 50.2115 16.7758C52.0727 20.94 52.5601 25.5222 51.6122 29.9433C50.6643 34.3644 48.3237 38.4254 44.8863 41.6128C41.449 44.8002 37.0694 46.9708 32.3015 47.8498C27.5337 48.7287 22.5918 48.2767 18.101 46.5509C13.6103 44.8251 9.77242 41.9029 7.0729 38.1542C4.37338 34.4055 2.93352 29.9986 2.93543 25.491C2.9431 19.452 5.5336 13.6625 10.1387 9.39234C14.7438 5.12216 20.9875 2.72006 27.5 2.71295ZM27.5 0.0268555C22.0606 0.0268558 16.7434 1.52272 12.2209 4.32509C7.6983 7.12746 4.17355 11.1105 2.09242 15.7705C0.011298 20.4305 -0.53276 25.5584 0.529116 30.5051C1.59099 35.4519 4.21108 39.9955 8.05799 43.5614C11.9049 47.1272 16.8059 49.5551 22.141 50.538C27.4761 51.521 33.0057 51.0149 38.0305 49.0835C43.0553 47.1521 47.3496 43.8821 50.3702 39.6874C53.3907 35.4928 55.0019 30.5619 55 25.5181C54.9975 18.7566 52.099 12.2728 46.942 7.49253C41.7851 2.71229 34.7918 0.0268551 27.5 0.0268555Z" fill="white"/>
<path d="M33.4577 9.24927H21.5423C20.931 9.26885 20.3299 9.40038 19.7737 9.6364C19.2175 9.87241 18.7172 10.2083 18.3016 10.6244C17.886 11.0406 17.5633 11.5289 17.3522 12.0613C17.1411 12.5936 17.0458 13.1594 17.0716 13.7261V37.2742C17.0326 38.4112 17.4812 39.516 18.3192 40.3468C19.1572 41.1776 20.3162 41.6668 21.5423 41.7065H33.4577C34.6837 41.6668 35.8427 41.1776 36.6808 40.3468C37.5188 39.516 37.9675 38.4112 37.9284 37.2742V13.6457C37.9571 12.5148 37.5038 11.4188 36.6669 10.5958C35.8299 9.77282 34.6768 9.28902 33.4577 9.24927ZM30.4836 38.7965H24.5163V37.2742H30.4836V38.7965ZM35.3116 34.3643H19.669V13.6902H35.3116V34.3643Z" fill="white"/>
</g>
<defs>
<clipPath id="clip0_1_99">
<rect width="55" height="51" fill="white"/>
</clipPath>
</defs>
</svg>
