<svg width="35" height="33" viewBox="0 0 35 33" fill="none" xmlns="http://www.w3.org/2000/svg">
<path d="M34.8185 0.189375C34.7211 0.102437 34.6002 0.0425261 34.469 0.0157216C34.3379 -0.011083 34.2015 -0.00349392 34.0746 0.0375829L0.459708 11.9231C0.318953 11.9715 0.198365 12.0611 0.115791 12.1789C0.0332163 12.2967 -0.00702668 12.4368 0.00100584 12.5777C0.00903837 12.7187 0.0649503 12.8534 0.160436 12.9622C0.255921 13.071 0.385939 13.1481 0.531381 13.182L16.1466 16.8564L31.7259 2.17463C31.7907 2.11306 31.8677 2.06421 31.9525 2.03068C32.0373 1.99714 32.1283 1.97951 32.2203 1.97912C32.3123 1.97873 32.4034 1.99539 32.4886 2.0282C32.5737 2.06101 32.6512 2.10949 32.7165 2.17051C32.7818 2.23152 32.8338 2.30424 32.8694 2.38417C32.9049 2.4641 32.9234 2.54952 32.9239 2.6362C32.9243 2.72288 32.9066 2.80881 32.8718 2.88905C32.837 2.96928 32.7857 3.04238 32.721 3.10395L17.1326 17.7944L21.0409 32.5013C21.0769 32.6374 21.158 32.7593 21.2725 32.849C21.387 32.9386 21.5288 32.9915 21.6774 33C21.8193 33.0015 21.9583 32.9617 22.0754 32.8861C22.1925 32.8105 22.282 32.7028 22.3317 32.5776L34.944 0.890588C34.9965 0.774646 35.0125 0.646932 34.9903 0.522657C34.968 0.398383 34.9084 0.282696 34.8185 0.189375Z" fill="#D6A43B"/>
</svg>
